<svg xmlns="http://www.w3.org/2000/svg" viewBox="0 0 200 200" fill="none" stroke="#1B1B17" stroke-width="1.4" stroke-linecap="round" stroke-linejoin="round">
  <!-- Clipboard board -->
  <rect x="48" y="40" width="104" height="130" rx="3" />
  <rect x="50" y="42" width="100" height="126" rx="2" stroke-dasharray="2 3" stroke-width="0.6" />
  <!-- Clip at top -->
  <rect x="84" y="32" width="32" height="14" rx="2" />
  <line x1="92" y1="36" x2="108" y2="36" stroke-width="0.6" />
  <line x1="92" y1="40" x2="108" y2="40" stroke-width="0.6" />
  <!-- Form fields -->
  <line x1="60" y1="68" x2="140" y2="68" />
  <line x1="60" y1="80" x2="120" y2="80" stroke-width="0.9" />
  <line x1="60" y1="98" x2="140" y2="98" />
  <line x1="60" y1="110" x2="115" y2="110" stroke-width="0.9" />
  <line x1="60" y1="128" x2="140" y2="128" />
  <line x1="60" y1="140" x2="125" y2="140" stroke-width="0.9" />
  <!-- Checkbox -->
  <rect x="60" y="150" width="6" height="6" />
  <line x1="61" y1="153" x2="65" y2="155" stroke-width="0.8" />
  <line x1="65" y1="155" x2="68" y2="149" stroke-width="0.8" />
  <line x1="72" y1="153" x2="135" y2="153" />
  <!-- Pencil resting diagonal -->
  <line x1="115" y1="180" x2="170" y2="125" stroke-width="2.4" />
  <polygon points="115,180 110,182 113,177" fill="#1B1B17" stroke="none" />
  <line x1="111" y1="184" x2="116" y2="179" stroke-width="0.6" />
  <line x1="170" y1="125" x2="174" y2="118" stroke-width="2.4" />
  <line x1="174" y1="118" x2="178" y2="121" stroke-width="2.4" />
  <line x1="170" y1="125" x2="178" y2="121" stroke-width="0.8" />
  <!-- Stipple shading -->
  <circle cx="148" cy="55" r="0.7" fill="#1B1B17" stroke="none" />
  <circle cx="142" cy="62" r="0.5" fill="#1B1B17" stroke="none" />
  <circle cx="55" cy="58" r="0.7" fill="#1B1B17" stroke="none" />
  <circle cx="58" cy="158" r="0.5" fill="#1B1B17" stroke="none" />
</svg>
