<svg xmlns="http://www.w3.org/2000/svg" viewBox="0 0 200 200" fill="none" stroke="#1B1B17" stroke-width="1.4" stroke-linecap="round" stroke-linejoin="round">
  <!-- Tooth crown -->
  <path d="M 60 50 Q 60 30 100 32 Q 140 30 140 50 Q 140 90 130 130 Q 125 158 115 168 Q 108 175 100 130 Q 92 175 85 168 Q 75 158 70 130 Q 60 90 60 50 Z" />
  <!-- Inner shading line -->
  <path d="M 70 60 Q 100 55 130 60" stroke-width="0.6" />
  <path d="M 75 80 Q 100 75 125 80" stroke-width="0.6" />
  <!-- Crown highlight -->
  <path d="M 80 42 Q 90 38 100 40" stroke-width="0.8" />
  <!-- Stipple shading -->
  <circle cx="78" cy="105" r="0.6" fill="#1B1B17" stroke="none" />
  <circle cx="82" cy="115" r="0.5" fill="#1B1B17" stroke="none" />
  <circle cx="120" cy="105" r="0.6" fill="#1B1B17" stroke="none" />
  <circle cx="118" cy="118" r="0.5" fill="#1B1B17" stroke="none" />
  <circle cx="100" cy="100" r="0.5" fill="#1B1B17" stroke="none" />
  <!-- Cross-hatch shading on roots -->
  <line x1="82" y1="140" x2="92" y2="160" stroke-width="0.5" />
  <line x1="86" y1="138" x2="93" y2="155" stroke-width="0.5" />
  <line x1="118" y1="140" x2="108" y2="160" stroke-width="0.5" />
  <line x1="114" y1="138" x2="107" y2="155" stroke-width="0.5" />
</svg>
