<svg xmlns="http://www.w3.org/2000/svg" viewBox="0 0 200 200" fill="none" stroke="#1B1B17" stroke-width="2.4" stroke-linecap="round" stroke-linejoin="round">
  <!-- Open-end wrench, horizontal silhouette -->
  <path d="M 22 100
           C 22 92, 28 88, 34 88
           L 124 88
           L 138 76
           L 168 76
           A 14 14 0 0 1 182 90
           L 182 110
           A 14 14 0 0 1 168 124
           L 138 124
           L 124 112
           L 34 112
           C 28 112, 22 108, 22 100 Z" />
  <!-- Open jaw notch (right side) -->
  <path d="M 168 90 L 156 92 L 152 96 L 152 104 L 156 108 L 168 110" />
  <!-- Hex bolt inside jaw -->
  <polygon points="146,94 142,98 142,102 146,106 152,106 154,102 154,98 152,94" stroke-width="0.8" />
  <!-- Handle inner ridge -->
  <line x1="48" y1="100" x2="118" y2="100" stroke-width="0.5" stroke-dasharray="3 3" />
  <!-- Handle end pivot -->
  <circle cx="32" cy="100" r="4" />
  <!-- Stipple texture -->
  <circle cx="60" cy="98" r="0.5" fill="#1B1B17" stroke="none" />
  <circle cx="80" cy="102" r="0.5" fill="#1B1B17" stroke="none" />
  <circle cx="100" cy="98" r="0.5" fill="#1B1B17" stroke="none" />
  <circle cx="120" cy="102" r="0.5" fill="#1B1B17" stroke="none" />
</svg>
